<?xml version="1.0" encoding="iso-8859-1"?>
<!-- Generator: Adobe Illustrator 16.0.0, SVG Export Plug-In . SVG Version: 6.00 Build 0)  -->
<!DOCTYPE svg PUBLIC "-//W3C//DTD SVG 1.1//EN" "http://www.w3.org/Graphics/SVG/1.1/DTD/svg11.dtd">
<svg version="1.1" id="Capa_1" xmlns="http://www.w3.org/2000/svg" xmlns:xlink="http://www.w3.org/1999/xlink" x="0px" y="0px"
	 width="79.542px" height="79.542px" viewBox="0 0 79.542 79.542" style="enable-background:new 0 0 79.542 79.542;"
	 xml:space="preserve">
<g>
	<path style="fill:#010002;" d="M73.754,5.8C69.891,1.937,64.827,0,59.762,0c-5.063,0-10.128,1.937-13.98,5.8L25.787,25.792l0,0
		L5.796,45.78c-7.726,7.715-7.726,20.246,0.005,27.972c7.716,7.721,20.247,7.721,27.967,0L49.5,58.026l24.249-24.25
		C81.469,26.046,81.469,13.515,73.754,5.8z M69.493,29.513L49.5,49.503L30.041,30.043l19.992-19.99
		c2.595-2.597,6.054-4.036,9.72-4.036c3.677,0,7.136,1.439,9.734,4.036C74.857,15.415,74.857,24.153,69.493,29.513z"/>
</g>
<g>
</g>
<g>
</g>
<g>
</g>
<g>
</g>
<g>
</g>
<g>
</g>
<g>
</g>
<g>
</g>
<g>
</g>
<g>
</g>
<g>
</g>
<g>
</g>
<g>
</g>
<g>
</g>
<g>
</g>
</svg>
